<svg xmlns="http://www.w3.org/2000/svg" width="410" height="404" viewBox="0 0 410 404" fill="none">
  <path d="M399.641 59.5249L216.349 386.742C210.47 397.437 194.829 397.472 188.901 386.803L5.47297 59.5227C-1.16799 47.4 9.13509 32.9071 22.8606 35.9526L205.246 75.9629C207.769 76.5126 210.386 76.5137 212.909 75.9676L382.308 35.9558C396.006 32.915 406.277 47.3808 399.641 59.5249Z" fill="url(#paint0_linear)"/>
  <path d="M292.965 0.0722761L157.744 25.0228C155.548 25.4297 153.93 27.3057 153.822 29.5385L145.656 167.49C145.538 169.819 147.78 171.603 150.054 170.938L187.702 159.74C189.981 159.074 192.223 160.866 192.1 163.201L182.835 337.083C182.716 339.611 185.352 341.419 187.729 340.425L211.239 330.327C213.621 329.331 216.262 331.149 216.137 333.677L210.214 399.624C210.086 401.969 212.714 403.638 215.035 402.72L218.245 401.416C219.933 400.739 221.229 399.376 222.007 397.756L223.057 395.595L370.195 93.1641C371.444 90.6027 369.176 87.7216 366.367 88.2556L314.574 98.2875C312.259 98.7328 310.189 96.7865 310.604 94.4683L333.445 7.14844C333.876 4.82969 331.785 2.88654 329.472 3.34595L292.965 0.0722761Z" fill="url(#paint1_linear)"/>
  <defs>
    <linearGradient id="paint0_linear" x1="6" y1="32" x2="235" y2="344" gradientUnits="userSpaceOnUse">
      <stop stop-color="#41D1FF"/>
      <stop offset="1" stop-color="#BD34FE"/>
    </linearGradient>
    <linearGradient id="paint1_linear" x1="194.651" y1="8.81818" x2="236.076" y2="292.989" gradientUnits="userSpaceOnUse">
      <stop stop-color="#FFEA83"/>
      <stop offset="0.0833333" stop-color="#FFDD35"/>
      <stop offset="1" stop-color="#FFA800"/>
    </linearGradient>
  </defs>
</svg>
